# xmcd CD database file
#
# Track frame offsets:
#	150
#	9525
#	21910
#	32337
#	48100
#	59102
#	82177
#	102657
#	112697
#	129790
#	140160
#	150772
#
# Disc length: 2171 seconds
#
# Revision: 0
# Processed by: cddbd v1.5PL3 Copyright (c) Steve Scherf et al.
# Submitted via: CDex 1.51
#
DISCID=9108790c
DTITLE=The Beatles - Norwegian Wood
DYEAR=1900
DGENRE=Rock
TTITLE0=Norwegian Wood
TTITLE1=Nowhere Man
TTITLE2=Help
TTITLE3=Hello Goodbye
TTITLE4=In My Life
TTITLE5=A Day In The Life
TTITLE6=Helter Skelter
TTITLE7=Can't Buy Me Love
TTITLE8=Across The Universe
TTITLE9=Lady Madonna
TTITLE10=Black Bird
TTITLE11=Michelle
EXTD=
EXTT0=
EXTT1=
EXTT2=
EXTT3=
EXTT4=
EXTT5=
EXTT6=
EXTT7=
EXTT8=
EXTT9=
EXTT10=
EXTT11=
PLAYORDER=
